<?xml version="1.0" encoding="utf-8"?>
<!-- Generator: Adobe Illustrator 25.0.1, SVG Export Plug-In . SVG Version: 6.00 Build 0)  -->
<svg version="1.0" id="Layer_1" xmlns="http://www.w3.org/2000/svg" xmlns:xlink="http://www.w3.org/1999/xlink" x="0px" y="0px"
	 viewBox="0 0 229 140" style="enable-background:new 0 0 229 140;" xml:space="preserve">
<style type="text/css">
	.st0{fill:#92003B;}
	.st1{fill-rule:evenodd;clip-rule:evenodd;fill:#92003B;}
	.st2{fill:none;}
</style>
<path class="st0" d="M142.6,70.8c0-5.2-3.3-7.5-7.5-7.5c-4.8,0-7.7,3.3-7.7,7.5c0,4.6,2.5,7.6,8,7.6c2.3,0.1,4.6-0.4,6.6-1.5
	l-0.8-3.4c-1.5,0.7-3.1,1.1-4.8,1.1c-2.1,0-3.2-0.8-3.7-2.2h9.7C142.5,71.8,142.6,71.3,142.6,70.8z M137.3,69.7l-2.9,0.7l-2,0.4l0,0
	c0-0.5,0-1.1,0.2-1.6c0.1-0.7,0.5-1.4,1.2-1.8c0.7-0.4,1.5-0.4,2.2-0.1c0.7,0.3,1.2,1,1.2,1.8C137.3,69.3,137.4,69.5,137.3,69.7
	L137.3,69.7z"/>
<path class="st0" d="M99.1,70.8c0-5.2-3.3-7.5-7.5-7.5c-4.8,0-7.7,3.3-7.7,7.5c0,4.6,2.5,7.6,8,7.6c2.3,0.1,4.6-0.4,6.6-1.5
	l-0.8-3.4c-1.5,0.7-3.1,1.1-4.8,1.1c-2.1,0-3.2-0.8-3.7-2.2H99C99.1,71.8,99.1,71.3,99.1,70.8z M93.9,69.7L91,70.4l-2,0.4l0,0
	c0-0.5,0-1.1,0.2-1.6c0.1-0.7,0.5-1.4,1.2-1.8c0.7-0.4,1.5-0.4,2.2-0.1c0.7,0.3,1.2,1,1.2,1.8C93.9,69.3,93.9,69.5,93.9,69.7
	L93.9,69.7z"/>
<rect x="77.3" y="59.5" class="st0" width="4.8" height="18.4"/>
<path class="st0" d="M143.6,63.8h5.1l1.1,3.2c0.7-2.1,2.6-3.5,4.8-3.7c3.7,0,5.6,1.8,5.6,6.6v7.8h-5.1V73c0-0.7,0-1.5,0-2.2
	c0.1-0.7,0-1.4-0.3-2c-0.3-0.4-0.6-0.7-1.1-0.9c-0.9-0.4-1.9-0.4-2.7,0c-0.2,0.1-1.3,0.7-1.3,0.9v9.1h-5.1V67.6L143.6,63.8z"/>
<path class="st0" d="M164.3,67.5h-2.3v-3.7h2.3v-2.3l5.1-1.2v3.5h5.1v3.7h-5.1v4.1c0,1.6,0.8,2.4,2,2.4c1,0,2-0.2,2.9-0.5l0.6,3.8
	c-1.5,0.6-3.2,0.9-4.9,0.9c-3.7,0-5.7-1.8-5.7-5.2L164.3,67.5L164.3,67.5z"/>
<path class="st0" d="M184.2,63.3c4.8,0,8.2,3,8.2,7.6s-3.5,7.4-8.3,7.4s-8.2-2.9-8.2-7.4S179.4,63.3,184.2,63.3z M184.2,74.2
	c1.9,0,2.9-1.3,2.9-3.5s-1-3.4-2.9-3.4s-2.9,1.2-2.9,3.4S182.4,74.2,184.2,74.2L184.2,74.2z"/>
<path class="st0" d="M122.8,63.8c-0.9-0.4-1.9-0.5-2.9-0.4c-0.5,0.1-1,0.2-1.4,0.4c-1.2,0.7-2.2,1.9-2.7,3.2
	c-0.3-1.5-1.4-2.7-2.8-3.3c-0.9-0.4-1.9-0.5-2.9-0.4c-0.5,0.1-1,0.2-1.4,0.4c-1.2,0.7-2.2,1.9-2.7,3.2V67l-1-3.1h-5.1l1.1,3.8v10.2
	h5v-9.2c0-0.1,0.2-0.2,0.3-0.2c0.6-0.5,1.3-0.8,2-0.9c0.8-0.1,1.5,0.3,2,0.9c0,0.1,0.1,0.1,0.1,0.2c0.3,0.6,0.4,1.3,0.3,2
	c0,0.8,0,1.5,0,2.2c0,1.6,0,3.3,0,4.9h5.1v-9.1c0-0.1,0.2-0.2,0.3-0.2c0.6-0.5,1.3-0.8,2-0.9c0.8,0,1.5,0.3,1.9,0.9
	c0.1,0.1,0.1,0.1,0.1,0.2c0.3,0.6,0.4,1.3,0.3,2c0,0.8,0,1.5,0,2.2v4.9h5V70C125.5,67.8,125.2,64.8,122.8,63.8z"/>
<path class="st0" d="M204.5,63.4c-2.2,0.1-4.1,1.6-4.8,3.7l-1.1-3.2h-5.1l1.1,3.8v10.3h5.1v-9.5c1.8,0.1,3.6,0.4,5.4,0.9v-5.8
	L204.5,63.4z"/>
<path class="st0" d="M75.5,70.4c0-5.2-3.3-7.5-7.5-7.5c-4.8,0-7.7,3.3-7.7,7.5c0,4.6,2.5,7.6,8,7.6c2.3,0.1,4.6-0.4,6.6-1.5L74.1,73
	c-1.5,0.7-3.1,1.1-4.8,1.1c-2.1,0-3.2-0.8-3.7-2.2h9.8C75.5,71.4,75.5,70.9,75.5,70.4z M70.3,69.2l-2.9,0.7l-2,0.4l0,0
	c0-0.5,0-1.1,0.1-1.6c0.1-0.7,0.5-1.4,1.2-1.8c0.7-0.4,1.5-0.4,2.2-0.1c0.7,0.3,1.2,1,1.2,1.8C70.2,68.8,70.2,69,70.3,69.2
	L70.3,69.2z"/>
<path class="st1" d="M37.3,73.6h7.2V76h-7.2V73.6z M44.5,68.8h-7.2v2.4h7.2V68.8z M37.3,64h7.2v2.4h-7.2V64z M34.9,64h-2.4v12h2.4
	V64z M24,70c0,8,6.5,14.5,14.5,14.5S53,78,53,70c0-8-6.5-14.5-14.5-14.5C30.5,55.5,24,62,24,70C24,70,24,70,24,70z"/>
<rect x="18" y="51" class="st2" width="193" height="38"/>
</svg>
